<?xml version="1.0" encoding="utf-8"?>
<!-- Generator: Adobe Illustrator 15.0.0, SVG Export Plug-In . SVG Version: 6.00 Build 0)  -->
<!DOCTYPE svg PUBLIC "-//W3C//DTD SVG 1.1//EN" "http://www.w3.org/Graphics/SVG/1.1/DTD/svg11.dtd">
<svg version="1.1" id="Layer_1" xmlns="http://www.w3.org/2000/svg" xmlns:xlink="http://www.w3.org/1999/xlink" x="0px" y="0px"
	 width="595.28px" height="841.89px" viewBox="0 0 595.28 841.89" enable-background="new 0 0 595.28 841.89" xml:space="preserve">
<text transform="matrix(1 0 0 1 37 45)" font-family="'MyriadPro-Regular'" font-size="16">Sportsektionen</text>
<text transform="matrix(1 0 0 1 59.4473 65)"><tspan x="0" y="0" font-family="'MyriadPro-Regular'" font-size="11">Badminton</tspan><tspan x="6.639" y="13.2" font-family="'MyriadPro-Regular'" font-size="11">Football</tspan><tspan x="5.362" y="26.4" font-family="'MyriadPro-Regular'" font-size="11">Floorball</tspan><tspan x="2.211" y="39.6" font-family="'MyriadPro-Regular'" font-size="11">Basketball</tspan><tspan x="-26.447" y="68.4" font-family="'MyriadPro-Bold'" font-size="13">sportsektionen.se</tspan></text>
<text transform="matrix(1 0 0 1 186 45)" font-family="'MyriadPro-Regular'" font-size="16">Sportsektionen</text>
<text transform="matrix(1 0 0 1 208.4473 65)"><tspan x="0" y="0" font-family="'MyriadPro-Regular'" font-size="11">Badminton</tspan><tspan x="6.639" y="13.2" font-family="'MyriadPro-Regular'" font-size="11">Football</tspan><tspan x="5.362" y="26.4" font-family="'MyriadPro-Regular'" font-size="11">Floorball</tspan><tspan x="2.211" y="39.6" font-family="'MyriadPro-Regular'" font-size="11">Basketball</tspan><tspan x="-26.447" y="68.4" font-family="'MyriadPro-Bold'" font-size="13">sportsektionen.se</tspan></text>
<text transform="matrix(1 0 0 1 330 45)" font-family="'MyriadPro-Regular'" font-size="16">Sportsektionen</text>
<text transform="matrix(1 0 0 1 352.4473 65)"><tspan x="0" y="0" font-family="'MyriadPro-Regular'" font-size="11">Badminton</tspan><tspan x="6.639" y="13.2" font-family="'MyriadPro-Regular'" font-size="11">Football</tspan><tspan x="5.362" y="26.4" font-family="'MyriadPro-Regular'" font-size="11">Floorball</tspan><tspan x="2.211" y="39.6" font-family="'MyriadPro-Regular'" font-size="11">Basketball</tspan><tspan x="-26.447" y="68.4" font-family="'MyriadPro-Bold'" font-size="13">sportsektionen.se</tspan></text>
<text transform="matrix(1 0 0 1 461 45)" font-family="'MyriadPro-Regular'" font-size="16">Sportsektionen</text>
<text transform="matrix(1 0 0 1 483.4473 65)"><tspan x="0" y="0" font-family="'MyriadPro-Regular'" font-size="11">Badminton</tspan><tspan x="6.639" y="13.2" font-family="'MyriadPro-Regular'" font-size="11">Football</tspan><tspan x="5.362" y="26.4" font-family="'MyriadPro-Regular'" font-size="11">Floorball</tspan><tspan x="2.211" y="39.6" font-family="'MyriadPro-Regular'" font-size="11">Basketball</tspan><tspan x="-26.447" y="68.4" font-family="'MyriadPro-Bold'" font-size="13">sportsektionen.se</tspan></text>
<text transform="matrix(1 0 0 1 33 160)" font-family="'MyriadPro-Regular'" font-size="16">Sportsektionen</text>
<text transform="matrix(1 0 0 1 55.4473 180)"><tspan x="0" y="0" font-family="'MyriadPro-Regular'" font-size="11">Badminton</tspan><tspan x="6.639" y="13.2" font-family="'MyriadPro-Regular'" font-size="11">Football</tspan><tspan x="5.362" y="26.4" font-family="'MyriadPro-Regular'" font-size="11">Floorball</tspan><tspan x="2.211" y="39.6" font-family="'MyriadPro-Regular'" font-size="11">Basketball</tspan><tspan x="-26.447" y="68.4" font-family="'MyriadPro-Bold'" font-size="13">sportsektionen.se</tspan></text>
<text transform="matrix(1 0 0 1 182 160)" font-family="'MyriadPro-Regular'" font-size="16">Sportsektionen</text>
<text transform="matrix(1 0 0 1 204.4473 180)"><tspan x="0" y="0" font-family="'MyriadPro-Regular'" font-size="11">Badminton</tspan><tspan x="6.639" y="13.2" font-family="'MyriadPro-Regular'" font-size="11">Football</tspan><tspan x="5.362" y="26.4" font-family="'MyriadPro-Regular'" font-size="11">Floorball</tspan><tspan x="2.211" y="39.6" font-family="'MyriadPro-Regular'" font-size="11">Basketball</tspan><tspan x="-26.447" y="68.4" font-family="'MyriadPro-Bold'" font-size="13">sportsektionen.se</tspan></text>
<text transform="matrix(1 0 0 1 326 160)" font-family="'MyriadPro-Regular'" font-size="16">Sportsektionen</text>
<text transform="matrix(1 0 0 1 348.4473 180)"><tspan x="0" y="0" font-family="'MyriadPro-Regular'" font-size="11">Badminton</tspan><tspan x="6.639" y="13.2" font-family="'MyriadPro-Regular'" font-size="11">Football</tspan><tspan x="5.362" y="26.4" font-family="'MyriadPro-Regular'" font-size="11">Floorball</tspan><tspan x="2.211" y="39.6" font-family="'MyriadPro-Regular'" font-size="11">Basketball</tspan><tspan x="-26.447" y="68.4" font-family="'MyriadPro-Bold'" font-size="13">sportsektionen.se</tspan></text>
<text transform="matrix(1 0 0 1 457 160)" font-family="'MyriadPro-Regular'" font-size="16">Sportsektionen</text>
<text transform="matrix(1 0 0 1 479.4473 180)"><tspan x="0" y="0" font-family="'MyriadPro-Regular'" font-size="11">Badminton</tspan><tspan x="6.639" y="13.2" font-family="'MyriadPro-Regular'" font-size="11">Football</tspan><tspan x="5.362" y="26.4" font-family="'MyriadPro-Regular'" font-size="11">Floorball</tspan><tspan x="2.211" y="39.6" font-family="'MyriadPro-Regular'" font-size="11">Basketball</tspan><tspan x="-26.447" y="68.4" font-family="'MyriadPro-Bold'" font-size="13">sportsektionen.se</tspan></text>
<text transform="matrix(1 0 0 1 33 275)" font-family="'MyriadPro-Regular'" font-size="16">Sportsektionen</text>
<text transform="matrix(1 0 0 1 55.4473 295)"><tspan x="0" y="0" font-family="'MyriadPro-Regular'" font-size="11">Badminton</tspan><tspan x="6.639" y="13.2" font-family="'MyriadPro-Regular'" font-size="11">Football</tspan><tspan x="5.362" y="26.4" font-family="'MyriadPro-Regular'" font-size="11">Floorball</tspan><tspan x="2.211" y="39.6" font-family="'MyriadPro-Regular'" font-size="11">Basketball</tspan><tspan x="-26.447" y="68.4" font-family="'MyriadPro-Bold'" font-size="13">sportsektionen.se</tspan></text>
<text transform="matrix(1 0 0 1 182 275)" font-family="'MyriadPro-Regular'" font-size="16">Sportsektionen</text>
<text transform="matrix(1 0 0 1 204.4473 295)"><tspan x="0" y="0" font-family="'MyriadPro-Regular'" font-size="11">Badminton</tspan><tspan x="6.639" y="13.2" font-family="'MyriadPro-Regular'" font-size="11">Football</tspan><tspan x="5.362" y="26.4" font-family="'MyriadPro-Regular'" font-size="11">Floorball</tspan><tspan x="2.211" y="39.6" font-family="'MyriadPro-Regular'" font-size="11">Basketball</tspan><tspan x="-26.447" y="68.4" font-family="'MyriadPro-Bold'" font-size="13">sportsektionen.se</tspan></text>
<text transform="matrix(1 0 0 1 326 275)" font-family="'MyriadPro-Regular'" font-size="16">Sportsektionen</text>
<text transform="matrix(1 0 0 1 348.4473 295)"><tspan x="0" y="0" font-family="'MyriadPro-Regular'" font-size="11">Badminton</tspan><tspan x="6.639" y="13.2" font-family="'MyriadPro-Regular'" font-size="11">Football</tspan><tspan x="5.362" y="26.4" font-family="'MyriadPro-Regular'" font-size="11">Floorball</tspan><tspan x="2.211" y="39.6" font-family="'MyriadPro-Regular'" font-size="11">Basketball</tspan><tspan x="-26.447" y="68.4" font-family="'MyriadPro-Bold'" font-size="13">sportsektionen.se</tspan></text>
<text transform="matrix(1 0 0 1 457 275)" font-family="'MyriadPro-Regular'" font-size="16">Sportsektionen</text>
<text transform="matrix(1 0 0 1 479.4473 295)"><tspan x="0" y="0" font-family="'MyriadPro-Regular'" font-size="11">Badminton</tspan><tspan x="6.639" y="13.2" font-family="'MyriadPro-Regular'" font-size="11">Football</tspan><tspan x="5.362" y="26.4" font-family="'MyriadPro-Regular'" font-size="11">Floorball</tspan><tspan x="2.211" y="39.6" font-family="'MyriadPro-Regular'" font-size="11">Basketball</tspan><tspan x="-26.447" y="68.4" font-family="'MyriadPro-Bold'" font-size="13">sportsektionen.se</tspan></text>
<text transform="matrix(1 0 0 1 35 394)" font-family="'MyriadPro-Regular'" font-size="16">Sportsektionen</text>
<text transform="matrix(1 0 0 1 57.4473 414)"><tspan x="0" y="0" font-family="'MyriadPro-Regular'" font-size="11">Badminton</tspan><tspan x="6.639" y="13.2" font-family="'MyriadPro-Regular'" font-size="11">Football</tspan><tspan x="5.362" y="26.4" font-family="'MyriadPro-Regular'" font-size="11">Floorball</tspan><tspan x="2.211" y="39.6" font-family="'MyriadPro-Regular'" font-size="11">Basketball</tspan><tspan x="-26.447" y="68.4" font-family="'MyriadPro-Bold'" font-size="13">sportsektionen.se</tspan></text>
<text transform="matrix(1 0 0 1 184 394)" font-family="'MyriadPro-Regular'" font-size="16">Sportsektionen</text>
<text transform="matrix(1 0 0 1 206.4473 414)"><tspan x="0" y="0" font-family="'MyriadPro-Regular'" font-size="11">Badminton</tspan><tspan x="6.639" y="13.2" font-family="'MyriadPro-Regular'" font-size="11">Football</tspan><tspan x="5.362" y="26.4" font-family="'MyriadPro-Regular'" font-size="11">Floorball</tspan><tspan x="2.211" y="39.6" font-family="'MyriadPro-Regular'" font-size="11">Basketball</tspan><tspan x="-26.447" y="68.4" font-family="'MyriadPro-Bold'" font-size="13">sportsektionen.se</tspan></text>
<text transform="matrix(1 0 0 1 328 394)" font-family="'MyriadPro-Regular'" font-size="16">Sportsektionen</text>
<text transform="matrix(1 0 0 1 350.4473 414)"><tspan x="0" y="0" font-family="'MyriadPro-Regular'" font-size="11">Badminton</tspan><tspan x="6.639" y="13.2" font-family="'MyriadPro-Regular'" font-size="11">Football</tspan><tspan x="5.362" y="26.4" font-family="'MyriadPro-Regular'" font-size="11">Floorball</tspan><tspan x="2.211" y="39.6" font-family="'MyriadPro-Regular'" font-size="11">Basketball</tspan><tspan x="-26.447" y="68.4" font-family="'MyriadPro-Bold'" font-size="13">sportsektionen.se</tspan></text>
<text transform="matrix(1 0 0 1 459 394)" font-family="'MyriadPro-Regular'" font-size="16">Sportsektionen</text>
<text transform="matrix(1 0 0 1 481.4473 414)"><tspan x="0" y="0" font-family="'MyriadPro-Regular'" font-size="11">Badminton</tspan><tspan x="6.639" y="13.2" font-family="'MyriadPro-Regular'" font-size="11">Football</tspan><tspan x="5.362" y="26.4" font-family="'MyriadPro-Regular'" font-size="11">Floorball</tspan><tspan x="2.211" y="39.6" font-family="'MyriadPro-Regular'" font-size="11">Basketball</tspan><tspan x="-26.447" y="68.4" font-family="'MyriadPro-Bold'" font-size="13">sportsektionen.se</tspan></text>
<text transform="matrix(1 0 0 1 31 509)" font-family="'MyriadPro-Regular'" font-size="16">Sportsektionen</text>
<text transform="matrix(1 0 0 1 53.4473 529)"><tspan x="0" y="0" font-family="'MyriadPro-Regular'" font-size="11">Badminton</tspan><tspan x="6.639" y="13.2" font-family="'MyriadPro-Regular'" font-size="11">Football</tspan><tspan x="5.362" y="26.4" font-family="'MyriadPro-Regular'" font-size="11">Floorball</tspan><tspan x="2.211" y="39.6" font-family="'MyriadPro-Regular'" font-size="11">Basketball</tspan><tspan x="-26.447" y="68.4" font-family="'MyriadPro-Bold'" font-size="13">sportsektionen.se</tspan></text>
<text transform="matrix(1 0 0 1 180 509)" font-family="'MyriadPro-Regular'" font-size="16">Sportsektionen</text>
<text transform="matrix(1 0 0 1 202.4473 529)"><tspan x="0" y="0" font-family="'MyriadPro-Regular'" font-size="11">Badminton</tspan><tspan x="6.639" y="13.2" font-family="'MyriadPro-Regular'" font-size="11">Football</tspan><tspan x="5.362" y="26.4" font-family="'MyriadPro-Regular'" font-size="11">Floorball</tspan><tspan x="2.211" y="39.6" font-family="'MyriadPro-Regular'" font-size="11">Basketball</tspan><tspan x="-26.447" y="68.4" font-family="'MyriadPro-Bold'" font-size="13">sportsektionen.se</tspan></text>
<text transform="matrix(1 0 0 1 324 509)" font-family="'MyriadPro-Regular'" font-size="16">Sportsektionen</text>
<text transform="matrix(1 0 0 1 346.4473 529)"><tspan x="0" y="0" font-family="'MyriadPro-Regular'" font-size="11">Badminton</tspan><tspan x="6.639" y="13.2" font-family="'MyriadPro-Regular'" font-size="11">Football</tspan><tspan x="5.362" y="26.4" font-family="'MyriadPro-Regular'" font-size="11">Floorball</tspan><tspan x="2.211" y="39.6" font-family="'MyriadPro-Regular'" font-size="11">Basketball</tspan><tspan x="-26.447" y="68.4" font-family="'MyriadPro-Bold'" font-size="13">sportsektionen.se</tspan></text>
<text transform="matrix(1 0 0 1 455 509)" font-family="'MyriadPro-Regular'" font-size="16">Sportsektionen</text>
<text transform="matrix(1 0 0 1 477.4473 529)"><tspan x="0" y="0" font-family="'MyriadPro-Regular'" font-size="11">Badminton</tspan><tspan x="6.639" y="13.2" font-family="'MyriadPro-Regular'" font-size="11">Football</tspan><tspan x="5.362" y="26.4" font-family="'MyriadPro-Regular'" font-size="11">Floorball</tspan><tspan x="2.211" y="39.6" font-family="'MyriadPro-Regular'" font-size="11">Basketball</tspan><tspan x="-26.447" y="68.4" font-family="'MyriadPro-Bold'" font-size="13">sportsektionen.se</tspan></text>
<text transform="matrix(1 0 0 1 31 624)" font-family="'MyriadPro-Regular'" font-size="16">Sportsektionen</text>
<text transform="matrix(1 0 0 1 53.4473 644)"><tspan x="0" y="0" font-family="'MyriadPro-Regular'" font-size="11">Badminton</tspan><tspan x="6.639" y="13.2" font-family="'MyriadPro-Regular'" font-size="11">Football</tspan><tspan x="5.362" y="26.4" font-family="'MyriadPro-Regular'" font-size="11">Floorball</tspan><tspan x="2.211" y="39.6" font-family="'MyriadPro-Regular'" font-size="11">Basketball</tspan><tspan x="-26.447" y="68.4" font-family="'MyriadPro-Bold'" font-size="13">sportsektionen.se</tspan></text>
<text transform="matrix(1 0 0 1 180 624)" font-family="'MyriadPro-Regular'" font-size="16">Sportsektionen</text>
<text transform="matrix(1 0 0 1 202.4473 644)"><tspan x="0" y="0" font-family="'MyriadPro-Regular'" font-size="11">Badminton</tspan><tspan x="6.639" y="13.2" font-family="'MyriadPro-Regular'" font-size="11">Football</tspan><tspan x="5.362" y="26.4" font-family="'MyriadPro-Regular'" font-size="11">Floorball</tspan><tspan x="2.211" y="39.6" font-family="'MyriadPro-Regular'" font-size="11">Basketball</tspan><tspan x="-26.447" y="68.4" font-family="'MyriadPro-Bold'" font-size="13">sportsektionen.se</tspan></text>
<text transform="matrix(1 0 0 1 324 624)" font-family="'MyriadPro-Regular'" font-size="16">Sportsektionen</text>
<text transform="matrix(1 0 0 1 346.4473 644)"><tspan x="0" y="0" font-family="'MyriadPro-Regular'" font-size="11">Badminton</tspan><tspan x="6.639" y="13.2" font-family="'MyriadPro-Regular'" font-size="11">Football</tspan><tspan x="5.362" y="26.4" font-family="'MyriadPro-Regular'" font-size="11">Floorball</tspan><tspan x="2.211" y="39.6" font-family="'MyriadPro-Regular'" font-size="11">Basketball</tspan><tspan x="-26.447" y="68.4" font-family="'MyriadPro-Bold'" font-size="13">sportsektionen.se</tspan></text>
<text transform="matrix(1 0 0 1 455 624)" font-family="'MyriadPro-Regular'" font-size="16">Sportsektionen</text>
<text transform="matrix(1 0 0 1 477.4473 644)"><tspan x="0" y="0" font-family="'MyriadPro-Regular'" font-size="11">Badminton</tspan><tspan x="6.639" y="13.2" font-family="'MyriadPro-Regular'" font-size="11">Football</tspan><tspan x="5.362" y="26.4" font-family="'MyriadPro-Regular'" font-size="11">Floorball</tspan><tspan x="2.211" y="39.6" font-family="'MyriadPro-Regular'" font-size="11">Basketball</tspan><tspan x="-26.447" y="68.4" font-family="'MyriadPro-Bold'" font-size="13">sportsektionen.se</tspan></text>
</svg>
